<svg xmlns="http://www.w3.org/2000/svg" width="12" height="12" viewBox="0 0 12 12">
    <g fill="none" fill-rule="evenodd">
        <g fill="#56A9FF" fill-rule="nonzero">
            <g>
                <g>
                    <g>
                        <path d="M4.588 3.383l.28-.28c.138-.137.361-.137.5 0 .137.138.137.362 0 .5l-.883.882c-.138.138-.361.138-.5 0l-.882-.882c-.137-.138-.137-.362 0-.5.138-.137.362-.137.5 0l.28.28V1.765c0-.195.157-.353.352-.353.195 0 .353.158.353.353v1.618zm3.53 3.822l-.28.28c-.138.138-.361.138-.5 0-.137-.138-.137-.361 0-.5l.883-.882c.138-.137.361-.137.5 0l.882.883c.137.138.137.361 0 .499-.138.138-.362.138-.5 0l-.28-.28v1.619c0 .194-.157.352-.352.352-.195 0-.353-.158-.353-.352V7.205zm-7.412-.5h2.118c.107 0 .208.05.275.133l1.124 1.405 3.61-4.922c.092-.126.256-.176.403-.124l2.47.882c.185.066.28.268.215.451-.066.184-.268.28-.451.214L8.247 3.95 4.52 9.032c-.137.188-.415.193-.56.012L2.654 7.412H.706v3.882h10.941c.195 0 .353.158.353.353 0 .195-.158.353-.353.353H.353C.158 12 0 11.842 0 11.647V.353C0 .158.158 0 .353 0c.195 0 .353.158.353.353v6.353z" transform="translate(-1344 -420) translate(24 348) translate(16 68) translate(1304 1) translate(0 3)"/>
                    </g>
                </g>
            </g>
        </g>
    </g>
</svg>
