<svg xmlns="http://www.w3.org/2000/svg" width="13" height="13" viewBox="0 0 13 13">
    <g fill="none" fill-rule="evenodd">
        <g fill="#56A9FF" fill-rule="nonzero">
            <g>
                <g>
                    <g>
                        <g>
                            <g>
                                <path d="M2.013 1.274v.458c-.09-.025-.166-.05-.204-.089l-.038-.038c-.026-.025-.026-.064-.026-.102 0-.14.09-.216.268-.23zM2.357 2.267c-.051-.038-.128-.063-.217-.102v.46c.204 0 .306-.077.306-.205-.013-.063-.038-.114-.09-.153z" transform="translate(-1343 -453) translate(24 348) translate(16 68) translate(1303 34) translate(0 3) translate(8.611 8.573)"/>
                                <path d="M1.963.932h.026v-.04c-.013.014-.013.027-.026.04zm.738-.83C2.61.076 2.522.05 2.433.038 2.318.013 2.191 0 2.063 0 .918 0 0 .93 0 2.064c0 .127.013.254.038.369.013.09.038.178.064.268.267.827 1.044 1.426 1.962 1.426 1.146 0 2.063-.93 2.063-2.063 0-.918-.599-1.695-1.426-1.962zm.101 2.548c-.038.076-.089.127-.152.178-.064.05-.14.076-.23.102-.089.025-.178.038-.267.038v.318h-.166v-.318c-.127-.013-.267-.038-.395-.076-.127-.051-.242-.102-.344-.179l.179-.344c.012.013.038.039.076.064s.077.051.14.076c.051.026.115.051.179.064.063.026.127.038.203.038v-.484c-.012 0-.038-.012-.05-.012-.013 0-.039-.013-.052-.013-.101-.026-.178-.051-.254-.09-.077-.025-.128-.063-.179-.114l-.012-.013c-.039-.038-.077-.089-.09-.14-.012-.038-.025-.076-.025-.127V1.54c0-.089.013-.178.05-.254.04-.077.077-.14.141-.192.064-.05.127-.089.204-.127.076-.025.153-.038.23-.05h.025V.623h.165v.293c.038 0 .09.013.128.013.076.013.152.038.216.064.102.038.204.089.28.14l-.178.318c-.013-.013-.038-.025-.064-.05-.025-.026-.063-.039-.114-.064-.038-.026-.09-.039-.14-.051-.051-.013-.102-.026-.166-.039v.497l.076.013c.102.025.192.05.268.089.076.026.153.064.204.115.05.05.102.102.127.165.026.064.051.14.051.23-.013.127-.025.216-.064.293z" transform="translate(-1343 -453) translate(24 348) translate(16 68) translate(1303 34) translate(0 3) translate(8.611 8.573)"/>
                            </g>
                            <path d="M8.152 8.14L6.025 5.923l.064-2.496c0-.153-.115-.28-.268-.28-.152 0-.28.114-.28.267l-.05 1.885-.026.828.522.612 1.745 1.757c.051.064.127.102.217.102.063 0 .127-.025.178-.063.115-.115.127-.28.025-.395z" transform="translate(-1343 -453) translate(24 348) translate(16 68) translate(1303 34) translate(0 3)"/>
                            <path d="M9.745 1.529C8.713.586 7.337 0 5.82 0 2.611 0 0 2.611 0 5.821c0 3.21 2.611 5.822 5.821 5.822.701 0 1.363-.128 1.988-.344-.039-.115-.064-.242-.09-.357-.586.217-1.223.344-1.885.344-3.006 0-5.452-2.446-5.452-5.452S2.815.37 5.822.37c1.413 0 2.7.535 3.668 1.414L8.407 2.866h2.217V.65l-.88.879zM10.993 3.91c-.166 0-.306-.14-.306-.305 0-.166.14-.306.306-.306.166 0 .306.14.306.306 0 .166-.14.306-.306.306zM11.299 5.656c-.166 0-.306-.14-.306-.306 0-.166.14-.306.306-.306.165 0 .306.14.306.306 0 .166-.14.306-.306.306zM11.159 7.426c-.166 0-.306-.14-.306-.305 0-.166.14-.306.306-.306.165 0 .305.14.305.306 0 .165-.14.305-.305.305z" transform="translate(-1343 -453) translate(24 348) translate(16 68) translate(1303 34) translate(0 3)"/>
                        </g>
                    </g>
                </g>
            </g>
        </g>
    </g>
</svg>
